<mxfile host="app.diagrams.net" agent="Mozilla/5.0 (Windows NT 10.0; Win64; x64) AppleWebKit/537.36 (KHTML, like Gecko) Chrome/136.0.0.0 Safari/537.36" version="27.0.9">
  <diagram name="Page-1" id="3zHPAKapzws6CSsruBGe">
    <mxGraphModel dx="850" dy="575" grid="1" gridSize="10" guides="1" tooltips="1" connect="1" arrows="1" fold="1" page="1" pageScale="1" pageWidth="850" pageHeight="1100" math="0" shadow="0">
      <root>
        <mxCell id="0" />
        <mxCell id="1" parent="0" />
        <mxCell id="GQ1zzt_9Efrzro4cbCyN-1" value="Banco" style="swimlane;fontStyle=1;align=center;verticalAlign=top;childLayout=stackLayout;horizontal=1;startSize=26;horizontalStack=0;resizeParent=1;resizeParentMax=0;resizeLast=0;collapsible=1;marginBottom=0;whiteSpace=wrap;html=1;" vertex="1" parent="1">
          <mxGeometry x="110" y="60" width="220" height="210" as="geometry" />
        </mxCell>
        <mxCell id="GQ1zzt_9Efrzro4cbCyN-2" value="+ field: type" style="text;strokeColor=none;fillColor=none;align=left;verticalAlign=top;spacingLeft=4;spacingRight=4;overflow=hidden;rotatable=0;points=[[0,0.5],[1,0.5]];portConstraint=eastwest;whiteSpace=wrap;html=1;" vertex="1" parent="GQ1zzt_9Efrzro4cbCyN-1">
          <mxGeometry y="26" width="220" height="54" as="geometry" />
        </mxCell>
        <mxCell id="GQ1zzt_9Efrzro4cbCyN-3" value="" style="line;strokeWidth=1;fillColor=none;align=left;verticalAlign=middle;spacingTop=-1;spacingLeft=3;spacingRight=3;rotatable=0;labelPosition=right;points=[];portConstraint=eastwest;strokeColor=inherit;" vertex="1" parent="GQ1zzt_9Efrzro4cbCyN-1">
          <mxGeometry y="80" width="220" height="8" as="geometry" />
        </mxCell>
        <mxCell id="GQ1zzt_9Efrzro4cbCyN-4" value="+ registrarCliente(Cliente): void&lt;div&gt;+ registrarSolicitudDeCredito( Cliente, double, int): void&lt;/div&gt;&lt;div&gt;+ evaluarSolicitud(SolicitudDeCredito): void&lt;/div&gt;&lt;div&gt;+debitarCredito(Cliente, double): void&lt;/div&gt;&lt;div&gt;+montoTotalSolicitado(): void&lt;/div&gt;&lt;div&gt;&lt;br&gt;&lt;/div&gt;" style="text;strokeColor=none;fillColor=none;align=left;verticalAlign=top;spacingLeft=4;spacingRight=4;overflow=hidden;rotatable=0;points=[[0,0.5],[1,0.5]];portConstraint=eastwest;whiteSpace=wrap;html=1;" vertex="1" parent="GQ1zzt_9Efrzro4cbCyN-1">
          <mxGeometry y="88" width="220" height="122" as="geometry" />
        </mxCell>
        <mxCell id="GQ1zzt_9Efrzro4cbCyN-5" value="Cliente" style="swimlane;fontStyle=1;align=center;verticalAlign=top;childLayout=stackLayout;horizontal=1;startSize=26;horizontalStack=0;resizeParent=1;resizeParentMax=0;resizeLast=0;collapsible=1;marginBottom=0;whiteSpace=wrap;html=1;" vertex="1" parent="1">
          <mxGeometry x="620" y="58" width="200" height="320" as="geometry" />
        </mxCell>
        <mxCell id="GQ1zzt_9Efrzro4cbCyN-6" value="- nombre: String&lt;div&gt;- apellido: String&lt;/div&gt;&lt;div&gt;- direccion: String&lt;/div&gt;&lt;div&gt;- edad: int&lt;/div&gt;&lt;div&gt;- sueldoNetoMensual: double&lt;/div&gt;&lt;div&gt;- efectivo: double&lt;/div&gt;" style="text;strokeColor=none;fillColor=none;align=left;verticalAlign=top;spacingLeft=4;spacingRight=4;overflow=hidden;rotatable=0;points=[[0,0.5],[1,0.5]];portConstraint=eastwest;whiteSpace=wrap;html=1;" vertex="1" parent="GQ1zzt_9Efrzro4cbCyN-5">
          <mxGeometry y="26" width="200" height="114" as="geometry" />
        </mxCell>
        <mxCell id="GQ1zzt_9Efrzro4cbCyN-7" value="" style="line;strokeWidth=1;fillColor=none;align=left;verticalAlign=middle;spacingTop=-1;spacingLeft=3;spacingRight=3;rotatable=0;labelPosition=right;points=[];portConstraint=eastwest;strokeColor=inherit;" vertex="1" parent="GQ1zzt_9Efrzro4cbCyN-5">
          <mxGeometry y="140" width="200" height="8" as="geometry" />
        </mxCell>
        <mxCell id="GQ1zzt_9Efrzro4cbCyN-8" value="+new(String, String, String, int, double)&lt;div&gt;+calcSueldoAnual(): double&lt;/div&gt;&lt;div&gt;+solicitarCreditoPersonal(double int): void&lt;/div&gt;&lt;div&gt;+solicitarCreditoHipotecario(double int)&lt;/div&gt;&lt;div&gt;+recibirCredito(double) : void&amp;nbsp;&lt;/div&gt;&lt;div&gt;&lt;br&gt;&lt;/div&gt;" style="text;strokeColor=none;fillColor=none;align=left;verticalAlign=top;spacingLeft=4;spacingRight=4;overflow=hidden;rotatable=0;points=[[0,0.5],[1,0.5]];portConstraint=eastwest;whiteSpace=wrap;html=1;" vertex="1" parent="GQ1zzt_9Efrzro4cbCyN-5">
          <mxGeometry y="148" width="200" height="172" as="geometry" />
        </mxCell>
        <mxCell id="GQ1zzt_9Efrzro4cbCyN-9" value="" style="endArrow=block;endFill=1;html=1;edgeStyle=orthogonalEdgeStyle;align=left;verticalAlign=top;rounded=0;entryX=-0.007;entryY=0.032;entryDx=0;entryDy=0;entryPerimeter=0;" edge="1" parent="1" target="GQ1zzt_9Efrzro4cbCyN-6">
          <mxGeometry x="-1" relative="1" as="geometry">
            <mxPoint x="330" y="88" as="sourcePoint" />
            <mxPoint x="490" y="88" as="targetPoint" />
            <Array as="points">
              <mxPoint x="360" y="88" />
              <mxPoint x="360" y="100" />
              <mxPoint x="500" y="100" />
              <mxPoint x="500" y="88" />
            </Array>
          </mxGeometry>
        </mxCell>
        <mxCell id="GQ1zzt_9Efrzro4cbCyN-11" value="clientes" style="text;html=1;align=center;verticalAlign=middle;resizable=0;points=[];autosize=1;strokeColor=none;fillColor=none;" vertex="1" parent="1">
          <mxGeometry x="415" y="58" width="60" height="30" as="geometry" />
        </mxCell>
        <mxCell id="GQ1zzt_9Efrzro4cbCyN-12" value="1" style="text;html=1;align=center;verticalAlign=middle;resizable=0;points=[];autosize=1;strokeColor=none;fillColor=none;" vertex="1" parent="1">
          <mxGeometry x="330" y="58" width="30" height="30" as="geometry" />
        </mxCell>
        <mxCell id="GQ1zzt_9Efrzro4cbCyN-13" value="*" style="text;html=1;align=center;verticalAlign=middle;resizable=0;points=[];autosize=1;strokeColor=none;fillColor=none;" vertex="1" parent="1">
          <mxGeometry x="570" y="58" width="30" height="30" as="geometry" />
        </mxCell>
        <mxCell id="GQ1zzt_9Efrzro4cbCyN-14" value="SolicitudDeCreditoPersonal" style="swimlane;fontStyle=1;align=center;verticalAlign=top;childLayout=stackLayout;horizontal=1;startSize=26;horizontalStack=0;resizeParent=1;resizeParentMax=0;resizeLast=0;collapsible=1;marginBottom=0;whiteSpace=wrap;html=1;" vertex="1" parent="1">
          <mxGeometry x="20" y="560" width="200" height="64" as="geometry" />
        </mxCell>
        <mxCell id="GQ1zzt_9Efrzro4cbCyN-15" value="+" style="text;strokeColor=none;fillColor=none;align=left;verticalAlign=top;spacingLeft=4;spacingRight=4;overflow=hidden;rotatable=0;points=[[0,0.5],[1,0.5]];portConstraint=eastwest;whiteSpace=wrap;html=1;" vertex="1" parent="GQ1zzt_9Efrzro4cbCyN-14">
          <mxGeometry y="26" width="200" height="4" as="geometry" />
        </mxCell>
        <mxCell id="GQ1zzt_9Efrzro4cbCyN-16" value="" style="line;strokeWidth=1;fillColor=none;align=left;verticalAlign=middle;spacingTop=-1;spacingLeft=3;spacingRight=3;rotatable=0;labelPosition=right;points=[];portConstraint=eastwest;strokeColor=inherit;" vertex="1" parent="GQ1zzt_9Efrzro4cbCyN-14">
          <mxGeometry y="30" width="200" height="8" as="geometry" />
        </mxCell>
        <mxCell id="GQ1zzt_9Efrzro4cbCyN-17" value="+esAceptable(): Bool" style="text;strokeColor=none;fillColor=none;align=left;verticalAlign=top;spacingLeft=4;spacingRight=4;overflow=hidden;rotatable=0;points=[[0,0.5],[1,0.5]];portConstraint=eastwest;whiteSpace=wrap;html=1;" vertex="1" parent="GQ1zzt_9Efrzro4cbCyN-14">
          <mxGeometry y="38" width="200" height="26" as="geometry" />
        </mxCell>
        <mxCell id="GQ1zzt_9Efrzro4cbCyN-18" value="SolicitudDeCredito" style="swimlane;fontStyle=1;align=center;verticalAlign=top;childLayout=stackLayout;horizontal=1;startSize=26;horizontalStack=0;resizeParent=1;resizeParentMax=0;resizeLast=0;collapsible=1;marginBottom=0;whiteSpace=wrap;html=1;" vertex="1" parent="1">
          <mxGeometry x="110" y="320" width="215" height="160" as="geometry" />
        </mxCell>
        <mxCell id="GQ1zzt_9Efrzro4cbCyN-19" value="+ cliente&lt;div&gt;+ double&lt;/div&gt;&lt;div&gt;+ int&lt;/div&gt;&lt;div&gt;&lt;br&gt;&lt;/div&gt;" style="text;strokeColor=none;fillColor=none;align=left;verticalAlign=top;spacingLeft=4;spacingRight=4;overflow=hidden;rotatable=0;points=[[0,0.5],[1,0.5]];portConstraint=eastwest;whiteSpace=wrap;html=1;" vertex="1" parent="GQ1zzt_9Efrzro4cbCyN-18">
          <mxGeometry y="26" width="215" height="54" as="geometry" />
        </mxCell>
        <mxCell id="GQ1zzt_9Efrzro4cbCyN-20" value="" style="line;strokeWidth=1;fillColor=none;align=left;verticalAlign=middle;spacingTop=-1;spacingLeft=3;spacingRight=3;rotatable=0;labelPosition=right;points=[];portConstraint=eastwest;strokeColor=inherit;" vertex="1" parent="GQ1zzt_9Efrzro4cbCyN-18">
          <mxGeometry y="80" width="215" height="8" as="geometry" />
        </mxCell>
        <mxCell id="GQ1zzt_9Efrzro4cbCyN-21" value="&lt;div&gt;&lt;i&gt;+ &lt;/i&gt;getMontoCoutasMensuales(): double&lt;/div&gt;&lt;div&gt;&lt;i&gt;+ esAceptable() : Bool&lt;/i&gt;&lt;/div&gt;&lt;div&gt;&lt;br&gt;&lt;/div&gt;" style="text;strokeColor=none;fillColor=none;align=left;verticalAlign=top;spacingLeft=4;spacingRight=4;overflow=hidden;rotatable=0;points=[[0,0.5],[1,0.5]];portConstraint=eastwest;whiteSpace=wrap;html=1;" vertex="1" parent="GQ1zzt_9Efrzro4cbCyN-18">
          <mxGeometry y="88" width="215" height="72" as="geometry" />
        </mxCell>
        <mxCell id="GQ1zzt_9Efrzro4cbCyN-22" value="" style="endArrow=block;endFill=1;html=1;edgeStyle=orthogonalEdgeStyle;align=left;verticalAlign=top;rounded=0;exitX=-0.011;exitY=0.073;exitDx=0;exitDy=0;exitPerimeter=0;" edge="1" parent="1" source="GQ1zzt_9Efrzro4cbCyN-4">
          <mxGeometry x="-1" relative="1" as="geometry">
            <mxPoint x="30" y="150" as="sourcePoint" />
            <mxPoint x="110" y="360" as="targetPoint" />
            <Array as="points">
              <mxPoint x="108" y="150" />
              <mxPoint x="20" y="150" />
              <mxPoint x="20" y="360" />
            </Array>
          </mxGeometry>
        </mxCell>
        <mxCell id="GQ1zzt_9Efrzro4cbCyN-26" value="solicitudes" style="text;html=1;align=center;verticalAlign=middle;resizable=0;points=[];autosize=1;strokeColor=none;fillColor=none;" vertex="1" parent="1">
          <mxGeometry x="10" y="228" width="80" height="30" as="geometry" />
        </mxCell>
        <mxCell id="GQ1zzt_9Efrzro4cbCyN-27" value="*" style="text;html=1;align=center;verticalAlign=middle;resizable=0;points=[];autosize=1;strokeColor=none;fillColor=none;" vertex="1" parent="1">
          <mxGeometry x="65" y="328" width="30" height="30" as="geometry" />
        </mxCell>
        <mxCell id="GQ1zzt_9Efrzro4cbCyN-28" value="1" style="text;html=1;align=center;verticalAlign=middle;resizable=0;points=[];autosize=1;strokeColor=none;fillColor=none;" vertex="1" parent="1">
          <mxGeometry x="65" y="150" width="30" height="30" as="geometry" />
        </mxCell>
        <mxCell id="GQ1zzt_9Efrzro4cbCyN-29" value="Extends" style="endArrow=block;endSize=16;endFill=0;html=1;rounded=0;exitX=0.25;exitY=0;exitDx=0;exitDy=0;" edge="1" parent="1" source="GQ1zzt_9Efrzro4cbCyN-14">
          <mxGeometry width="160" relative="1" as="geometry">
            <mxPoint x="150" y="510" as="sourcePoint" />
            <mxPoint x="120" y="480" as="targetPoint" />
            <Array as="points" />
          </mxGeometry>
        </mxCell>
        <mxCell id="GQ1zzt_9Efrzro4cbCyN-30" value="SolicitudDeCreditoHipotecario" style="swimlane;fontStyle=1;align=center;verticalAlign=top;childLayout=stackLayout;horizontal=1;startSize=26;horizontalStack=0;resizeParent=1;resizeParentMax=0;resizeLast=0;collapsible=1;marginBottom=0;whiteSpace=wrap;html=1;" vertex="1" parent="1">
          <mxGeometry x="240" y="560" width="200" height="116" as="geometry" />
        </mxCell>
        <mxCell id="GQ1zzt_9Efrzro4cbCyN-31" value="+" style="text;strokeColor=none;fillColor=none;align=left;verticalAlign=top;spacingLeft=4;spacingRight=4;overflow=hidden;rotatable=0;points=[[0,0.5],[1,0.5]];portConstraint=eastwest;whiteSpace=wrap;html=1;" vertex="1" parent="GQ1zzt_9Efrzro4cbCyN-30">
          <mxGeometry y="26" width="200" height="4" as="geometry" />
        </mxCell>
        <mxCell id="GQ1zzt_9Efrzro4cbCyN-35" value="- propiedadGarantia: Propiedad" style="text;html=1;align=left;verticalAlign=middle;resizable=0;points=[];autosize=1;strokeColor=none;fillColor=none;" vertex="1" parent="GQ1zzt_9Efrzro4cbCyN-30">
          <mxGeometry y="30" width="200" height="30" as="geometry" />
        </mxCell>
        <mxCell id="GQ1zzt_9Efrzro4cbCyN-32" value="" style="line;strokeWidth=1;fillColor=none;align=left;verticalAlign=middle;spacingTop=-1;spacingLeft=3;spacingRight=3;rotatable=0;labelPosition=right;points=[];portConstraint=eastwest;strokeColor=inherit;" vertex="1" parent="GQ1zzt_9Efrzro4cbCyN-30">
          <mxGeometry y="60" width="200" height="30" as="geometry" />
        </mxCell>
        <mxCell id="GQ1zzt_9Efrzro4cbCyN-33" value="+esAceptable(): Bool" style="text;strokeColor=none;fillColor=none;align=left;verticalAlign=top;spacingLeft=4;spacingRight=4;overflow=hidden;rotatable=0;points=[[0,0.5],[1,0.5]];portConstraint=eastwest;whiteSpace=wrap;html=1;" vertex="1" parent="GQ1zzt_9Efrzro4cbCyN-30">
          <mxGeometry y="90" width="200" height="26" as="geometry" />
        </mxCell>
        <mxCell id="GQ1zzt_9Efrzro4cbCyN-36" value="Propiedad" style="swimlane;fontStyle=1;align=center;verticalAlign=top;childLayout=stackLayout;horizontal=1;startSize=26;horizontalStack=0;resizeParent=1;resizeParentMax=0;resizeLast=0;collapsible=1;marginBottom=0;whiteSpace=wrap;html=1;" vertex="1" parent="1">
          <mxGeometry x="645" y="520" width="160" height="98" as="geometry" />
        </mxCell>
        <mxCell id="GQ1zzt_9Efrzro4cbCyN-40" value="- descripcion: String&lt;div&gt;- direccion: String&amp;nbsp;&lt;/div&gt;&lt;div&gt;- valorFiscal: double&lt;/div&gt;&lt;div&gt;&lt;br&gt;&lt;/div&gt;" style="text;strokeColor=none;fillColor=none;align=left;verticalAlign=top;spacingLeft=4;spacingRight=4;overflow=hidden;rotatable=0;points=[[0,0.5],[1,0.5]];portConstraint=eastwest;whiteSpace=wrap;html=1;" vertex="1" parent="GQ1zzt_9Efrzro4cbCyN-36">
          <mxGeometry y="26" width="160" height="64" as="geometry" />
        </mxCell>
        <mxCell id="GQ1zzt_9Efrzro4cbCyN-38" value="" style="line;strokeWidth=1;fillColor=none;align=left;verticalAlign=middle;spacingTop=-1;spacingLeft=3;spacingRight=3;rotatable=0;labelPosition=right;points=[];portConstraint=eastwest;strokeColor=inherit;" vertex="1" parent="GQ1zzt_9Efrzro4cbCyN-36">
          <mxGeometry y="90" width="160" height="8" as="geometry" />
        </mxCell>
        <mxCell id="GQ1zzt_9Efrzro4cbCyN-41" value="" style="endArrow=block;endFill=1;html=1;edgeStyle=orthogonalEdgeStyle;align=left;verticalAlign=top;rounded=0;entryX=0.75;entryY=0;entryDx=0;entryDy=0;" edge="1" parent="1" target="GQ1zzt_9Efrzro4cbCyN-36">
          <mxGeometry x="-1" relative="1" as="geometry">
            <mxPoint x="742" y="380" as="sourcePoint" />
            <mxPoint x="770" y="320" as="targetPoint" />
            <Array as="points">
              <mxPoint x="742" y="400" />
              <mxPoint x="650" y="400" />
              <mxPoint x="650" y="450" />
              <mxPoint x="770" y="450" />
              <mxPoint x="770" y="520" />
            </Array>
          </mxGeometry>
        </mxCell>
        <mxCell id="GQ1zzt_9Efrzro4cbCyN-42" value="1" style="text;html=1;align=center;verticalAlign=middle;resizable=0;points=[];autosize=1;strokeColor=none;fillColor=none;" vertex="1" parent="1">
          <mxGeometry x="770" y="490" width="30" height="30" as="geometry" />
        </mxCell>
        <mxCell id="GQ1zzt_9Efrzro4cbCyN-43" value="1" style="text;html=1;align=center;verticalAlign=middle;resizable=0;points=[];autosize=1;strokeColor=none;fillColor=none;" vertex="1" parent="1">
          <mxGeometry x="750" y="380" width="30" height="30" as="geometry" />
        </mxCell>
        <mxCell id="GQ1zzt_9Efrzro4cbCyN-44" value="propiedad" style="text;html=1;align=center;verticalAlign=middle;resizable=0;points=[];autosize=1;strokeColor=none;fillColor=none;" vertex="1" parent="1">
          <mxGeometry x="660" y="420" width="80" height="30" as="geometry" />
        </mxCell>
        <mxCell id="GQ1zzt_9Efrzro4cbCyN-45" value="Extends" style="endArrow=block;endSize=16;endFill=0;html=1;rounded=0;exitX=0.5;exitY=0;exitDx=0;exitDy=0;" edge="1" parent="1" source="GQ1zzt_9Efrzro4cbCyN-30">
          <mxGeometry width="160" relative="1" as="geometry">
            <mxPoint x="210" y="560" as="sourcePoint" />
            <mxPoint x="290" y="480" as="targetPoint" />
            <Array as="points" />
          </mxGeometry>
        </mxCell>
        <mxCell id="GQ1zzt_9Efrzro4cbCyN-47" value="&lt;p style=&quot;margin:0px;margin-top:4px;text-align:center;&quot;&gt;&lt;b style=&quot;&quot;&gt;GestorSolicitudes&lt;/b&gt;&lt;/p&gt;&lt;p style=&quot;margin:0px;margin-top:4px;text-align:center;&quot;&gt;&lt;b style=&quot;&quot;&gt;&lt;i&gt;&amp;lt;Interface&amp;gt;&lt;/i&gt;&lt;/b&gt;&lt;/p&gt;&lt;hr size=&quot;1&quot; style=&quot;border-style:solid;&quot;&gt;&lt;p style=&quot;margin:0px;margin-left:4px;&quot;&gt;&lt;br&gt;&lt;/p&gt;&lt;p style=&quot;margin:0px;margin-left:4px;&quot;&gt;+registrarSolicitudDeCredito(&lt;span style=&quot;background-color: transparent; color: light-dark(rgb(0, 0, 0), rgb(255, 255, 255));&quot;&gt;Cliente, double, int): void&lt;/span&gt;&lt;/p&gt;&lt;div&gt;+ evaluarSolicitud(SolicitudDeCredito): void&lt;/div&gt;&lt;div&gt;+debitarCredito(Cliente, double): void&lt;/div&gt;&lt;div&gt;&lt;br&gt;&lt;/div&gt;" style="verticalAlign=top;align=left;overflow=fill;html=1;whiteSpace=wrap;" vertex="1" parent="1">
          <mxGeometry x="370" y="258" width="210" height="190" as="geometry" />
        </mxCell>
        <mxCell id="GQ1zzt_9Efrzro4cbCyN-48" value="" style="endArrow=block;endFill=1;html=1;edgeStyle=orthogonalEdgeStyle;align=left;verticalAlign=top;rounded=0;exitX=-0.013;exitY=0.278;exitDx=0;exitDy=0;exitPerimeter=0;entryX=0.686;entryY=-0.012;entryDx=0;entryDy=0;entryPerimeter=0;" edge="1" parent="1" source="GQ1zzt_9Efrzro4cbCyN-6" target="GQ1zzt_9Efrzro4cbCyN-47">
          <mxGeometry x="-1" relative="1" as="geometry">
            <mxPoint x="425" y="164.58" as="sourcePoint" />
            <mxPoint x="585" y="164.58" as="targetPoint" />
          </mxGeometry>
        </mxCell>
        <mxCell id="GQ1zzt_9Efrzro4cbCyN-50" value="1" style="text;html=1;align=center;verticalAlign=middle;resizable=0;points=[];autosize=1;strokeColor=none;fillColor=none;" vertex="1" parent="1">
          <mxGeometry x="565" y="108" width="30" height="30" as="geometry" />
        </mxCell>
        <mxCell id="GQ1zzt_9Efrzro4cbCyN-51" value="banco" style="text;html=1;align=center;verticalAlign=middle;resizable=0;points=[];autosize=1;strokeColor=none;fillColor=none;" vertex="1" parent="1">
          <mxGeometry x="505" y="150" width="60" height="30" as="geometry" />
        </mxCell>
        <mxCell id="GQ1zzt_9Efrzro4cbCyN-52" value="1" style="text;html=1;align=center;verticalAlign=middle;resizable=0;points=[];autosize=1;strokeColor=none;fillColor=none;" vertex="1" parent="1">
          <mxGeometry x="515" y="208" width="30" height="30" as="geometry" />
        </mxCell>
        <mxCell id="GQ1zzt_9Efrzro4cbCyN-54" value="Use" style="endArrow=open;endSize=12;dashed=1;html=1;rounded=0;entryX=0.422;entryY=-0.005;entryDx=0;entryDy=0;entryPerimeter=0;" edge="1" parent="1" target="GQ1zzt_9Efrzro4cbCyN-47">
          <mxGeometry width="160" relative="1" as="geometry">
            <mxPoint x="330" y="138" as="sourcePoint" />
            <mxPoint x="490" y="138" as="targetPoint" />
          </mxGeometry>
        </mxCell>
      </root>
    </mxGraphModel>
  </diagram>
</mxfile>
